<?xml version="1.0" encoding="utf-8" ?>
<svg baseProfile="full" height="200mm" version="1.1" viewBox="0,0,200,200" width="200mm" xmlns="http://www.w3.org/2000/svg" xmlns:ev="http://www.w3.org/2001/xml-events" xmlns:xlink="http://www.w3.org/1999/xlink"><defs /><rect fill="#1a1a1a" height="200" width="200" x="0" y="0" /><rect fill="#1a1a1a" height="200" width="180" x="10" y="0" /><text alignment-baseline="middle" fill="#e1ed5e" style="dominant-baseline: central; font-size:9.0px; font-family:Arial;" text-anchor="middle" x="100.0" y="100.0">2026</text><line stroke="#e1ed5e" stroke-width="0.3" x1="100.0" x2="100.0" y1="15.0" y2="10.0" /><path d="M 100.0 14.0 a86.0,86.0 0 0,1 42.46469731375804,11.215312516191453" fill="none" id="id1" stroke="none" /><text fill="#e1ed5e" style="font-size:6.75px; font-family:Arial;" text-anchor="middle"><textPath startOffset="22.20632615414155" xlink:href="#id1">January</textPath></text><line stroke="#e1ed5e" stroke-width="0.3" x1="143.23703022742887" x2="145.7803849466894" y1="26.81831364943548" y2="22.513508569990506" /><path d="M 143.74570117128098 25.957352633546492 a86.0,86.0 0 0,1 28.547481713284135,27.462654790039103" fill="none" id="id2" stroke="none" /><text fill="#e1ed5e" style="font-size:6.75px; font-family:Arial;" text-anchor="middle"><textPath startOffset="19.985693538727396" xlink:href="#id2">February</textPath></text><path d="M 115.68641384162765 86.03803664274999 l 28.03754373251666 -24.95529967352141 a58.534928271518545,58.534928271518545 0 0,0 0.6634185330242122,0.7584020667360224 l -28.46295412911872 24.46898205058244" fill="red" stroke="none" /><path d="M 116.15771136456269 86.58626213691792 l 11.557738708237842 -9.594952764307852 a36.02146606018195,36.02146606018195 0 0,0 0.3919504434461922,0.48048489892292756 l -11.721187643760443 9.394583695776824" fill="red" stroke="none" /><path d="M 116.38621287248628 86.86637796730983 l 11.42620141132887 -9.158150926853827 a35.643421973407975,35.643421973407975 0 0,0 0.3795955180009586,0.4820477593328223 l -11.582151009923793 8.960110773567967" fill="red" stroke="none" /><line stroke="#e1ed5e" stroke-width="0.3" x1="172.23445277983987" x2="176.4835382374775" y1="55.19839476539836" y2="52.563006222186495" /><path d="M 173.08426987136738 54.67131705675599 a86.0,86.0 0 0,1 12.851231095245387,41.99856678651699" fill="none" id="id3" stroke="none" /><text fill="#e1ed5e" style="font-size:6.75px; font-family:Arial;" text-anchor="middle"><textPath startOffset="22.20632615414155" xlink:href="#id3">March</textPath></text><path d="M 117.84615892207809 88.93136811851018 l 12.550070857081403 -7.783866265574638 a35.767967109867044,35.767967109867044 0 0,0 0.3200112355886651,0.5260143300188624 l -12.68219789095629 7.566684162348694" fill="red" stroke="none" /><path d="M 119.196687751892 91.48605970444005 l 13.156750192866431 -5.835162142209736 a35.39267844646606,35.39267844646606 0 0,0 0.24220269982418524,0.5590372245744808 l -13.255243602533296 5.607825773048653" fill="red" stroke="none" /><path d="M 119.34039704204932 91.81776055985345 l 26.752580523533823 -11.31807268534547 a50.04822428271519,50.04822428271519 0 0,0 0.32883664575572835,0.7963040207862685 l -26.94343885617575 10.855894094105897" fill="red" stroke="none" /><path d="M 120.18372546131832 94.20196356495316 l 14.237895139757637 -4.09001970111514 a35.81370713785864,35.81370713785864 0 0,0 0.16510669742888517,0.5939766370847698 l -14.306188607752885 3.8443317606114182" fill="red" stroke="none" /><path d="M 120.28053869075195 94.5502522615342 l 13.979947261949064 -3.756664807400794 a35.4758922323303,35.4758922323303 0 0,0 0.15339719737473465,0.5911019761398164 l -14.042540791194101 3.515466405712127" fill="red" stroke="none" /><path d="M 120.83666639777658 97.38593545837742 l 14.271986432339919 -1.7904924405412235 a35.3838610916725,35.3838610916725 0 0,0 0.07061548227247808,0.6049903279623154 l -14.300692267615986 1.5445583742540552" fill="red" stroke="none" /><path d="M 120.98425023603335 99.18683210126433 l 37.1339729815432 -1.4389913597797686 a58.16184394681595,58.16184394681595 0 0,0 0.030156377519810606,1.0007433570853912 l -37.153241053518656 0.7995778552693782" fill="red" stroke="none" /><line stroke="#e1ed5e" stroke-width="0.3" x1="184.98032266829074" x2="189.97916517819016" y1="98.17113171792111" y2="98.06355123074" /><path d="M 185.9800911702706 98.14961562048488 a86.0,86.0 0 0,1 -9.607161424134198,41.387399972396054" fill="none" id="id4" stroke="none" /><text fill="#e1ed5e" style="font-size:6.75px; font-family:Arial;" text-anchor="middle"><textPath startOffset="21.466115282336823" xlink:href="#id4">April</textPath></text><path d="M 120.02730092923936 106.31721596034902 l 14.94374408560161 4.713708501134466 a36.66954163750875,36.66954163750875 0 0,0 -0.19506056917105272,0.600334702489788 l -14.860391265414309 -4.9702421036020485" fill="red" stroke="none" /><path d="M 119.79798401119884 107.00284435728193 l 48.17186172633894 17.039111147844118 a72.09657102869139,72.09657102869139 0 0,0 -0.42391320889318235,1.1664270873953257 l -47.87142425644053 -17.865786032245573" fill="red" stroke="none" /><path d="M 119.26925614724726 108.34839909993367 l 33.34616243781196 14.44721427515201 a57.3412788663401,57.3412788663401 0 0,0 -0.4001845538463043,0.9023105232866084 l -33.09253679923439 -15.019073134931306" fill="red" stroke="none" /><path d="M 118.97047184881838 109.00673069616215 l 12.906624907779879 6.127759797814031 a35.287421273617916,35.287421273617916 0 0,0 -0.26523831097643996,0.5464694816041158 l -12.799233340188724 -6.349018235383422" fill="red" stroke="none" /><path d="M 118.81262510543309 109.33194174019688 l 13.069771790795194 6.483217957399549 a35.58941567529741,35.58941567529741 0 0,0 -0.2769556976755481,0.5464598663077029 l -12.956237423333377 -6.7072320354099455" fill="red" stroke="none" /><line stroke="#e1ed5e" stroke-width="0.3" x1="174.80103733775053" x2="179.2010983576182" y1="140.37084112569926" y2="142.7455964860345" /><path d="M 175.68104954172406 140.8457921977663 a86.0,86.0 0 0,1 -30.038265399797805,32.042727171017184" fill="none" id="id5" stroke="none" /><text fill="#e1ed5e" style="font-size:6.75px; font-family:Arial;" text-anchor="middle"><textPath startOffset="22.206326154141568" xlink:href="#id5">May</textPath></text><path d="M 117.94076556474637 110.91462005526583 l 53.8222966942391 32.74386016579747 a84.0,84.0 0 0,0 -0.7621414413281484,1.228814674538906 l -53.25069061324299 -33.665471171701654" fill="red" stroke="none" /><path d="M 117.55443506779139 111.5257021239791 l 12.11044113446031 7.951343154407447 a35.48746501049685,35.48746501049685 0 0,0 -0.33966048875978855,0.5077463449555877 l -11.9717775402898 -8.158626413568841" fill="red" stroke="none" /><path d="M 117.35343817320211 111.8261652097733 l 9.017199858316346 6.145116269735505 a31.91202764170749,31.91202764170749 0 0,0 -0.31325316327040076,0.45126454521592374 l -8.910085787883808 -6.299422077138448" fill="red" stroke="none" /><path d="M 115.80600337817218 113.82643327865902 l 10.951934391110692 9.580295948820314 a35.550839748075575,35.550839748075575 0 0,0 -0.40687284385809824,0.45712595330397676 l -10.785402697604255 -9.767396071865159" fill="red" stroke="none" /><path d="M 115.07121518719521 114.62390073753431 l 20.10251204167489 19.505868440012097 a49.01053184044787,49.01053184044787 0 0,0 -0.592699239614091,0.6004012005246916 l -19.76377217700526 -19.849010134517453" fill="red" stroke="none" /><path d="M 113.75828350139079 115.86535959552629 l 9.659080436827532 11.138365078528201 a35.743168299510145,35.743168299510145 0 0,0 -0.4682942655101008,0.3990905324948323 l -9.465920694740383 -11.302980001245981" fill="red" stroke="none" /><path d="M 113.48314897796784 116.09983520530334 l 9.502718652063038 11.346919369545969 a35.8004811056683,35.8004811056683 0 0,0 -0.47585636614587645,0.39159739320158893 l -9.30599215737247 -11.508811881604736" fill="red" stroke="none" /><path d="M 112.04921762599082 117.19931262002967 l 21.52986078080078 30.73218674679375 a58.52335549335199,58.52335549335199 0 0,0 -0.8300370724982121,0.5709070671463843 l -20.997666823679687 -31.09823460330523" fill="red" stroke="none" /><path d="M 111.45004920935366 117.60387380957326 l 7.985988660414677 12.278055233839353 a35.64672848145557,35.64672848145557 0 0,0 -0.5172479459900714,0.33013211187040414 l -7.7734589123776745 -12.413701774533568" fill="red" stroke="none" /><line stroke="#e1ed5e" stroke-width="0.3" x1="143.8653032363475" x2="146.44561519142675" y1="172.8068346515853" y2="177.08958963109032" /><path d="M 144.38136562736335 173.6633856474863 a86.0,86.0 0 0,1 -40.68145358897372,12.25698825130547" fill="none" id="id6" stroke="none" /><text fill="#e1ed5e" style="font-size:6.75px; font-family:Arial;" text-anchor="middle"><textPath startOffset="21.466115282336833" xlink:href="#id6">June</textPath></text><line stroke="#e1ed5e" stroke-width="0.3" x1="102.19456741930631" x2="102.32365962044197" y1="184.97166512339345" y2="189.96999836594603" /><path d="M 102.22038585953345 185.97133177190398 a86.0,86.0 0 0,1 -42.740103519485714,-10.115201625700543" fill="none" id="id7" stroke="none" /><text fill="#e1ed5e" style="font-size:6.75px; font-family:Arial;" text-anchor="middle"><textPath startOffset="22.20632615414155" xlink:href="#id7">July</textPath></text><line stroke="#e1ed5e" stroke-width="0.3" x1="58.666819895761336" x2="56.23545636021788" y1="174.27360380694188" y2="178.64263932499728" /><path d="M 58.180547188652646 175.14741091055294 a86.0,86.0 0 0,1 -31.652253787137756,-30.449443065178592" fill="none" id="id8" stroke="none" /><text fill="#e1ed5e" style="font-size:6.75px; font-family:Arial;" text-anchor="middle"><textPath startOffset="22.20632615414155" xlink:href="#id8">August</textPath></text><line stroke="#e1ed5e" stroke-width="0.3" x1="26.63291911575756" x2="22.317208475507996" y1="142.92168965132927" y2="145.44649492493687" /><path d="M 25.769776987707644 143.4266507060508 a86.0,86.0 0 0,1 -11.730757126820373,-40.83630448921669" fill="none" id="id9" stroke="none" /><text fill="#e1ed5e" style="font-size:6.75px; font-family:Arial;" text-anchor="middle"><textPath startOffset="21.46611528233685" xlink:href="#id9">September</textPath></text><line stroke="#e1ed5e" stroke-width="0.3" x1="15.007084014347285" x2="10.007500721073583" y1="101.09737516637583" y2="101.16192664675087" /><path d="M 14.007167355692545 101.11028546245083 a86.0,86.0 0 0,1 10.666146001902534,-42.60595125391555" fill="none" id="id10" stroke="none" /><text fill="#e1ed5e" style="font-size:6.75px; font-family:Arial;" text-anchor="middle"><textPath startOffset="22.20632615414155" xlink:href="#id10">October</textPath></text><line stroke="#e1ed5e" stroke-width="0.3" x1="26.266209847984243" x2="21.928928074336255" y1="57.711370442889674" y2="55.22380399835377" /><path d="M 25.398753493254645 57.213857153982495 a86.0,86.0 0 0,1 29.58750427330803,-30.492523968695096" fill="none" id="id11" stroke="none" /><text fill="#e1ed5e" style="font-size:6.75px; font-family:Arial;" text-anchor="middle"><textPath startOffset="21.46611528233685" xlink:href="#id11">November</textPath></text><line stroke="#e1ed5e" stroke-width="0.3" x1="56.762969772571076" x2="54.21961505331055" y1="26.818313649435495" y2="22.513508569990535" /><path d="M 56.25429882871897 25.957352633546506 a86.0,86.0 0 0,1 42.265352541879196,-11.944610805530505" fill="none" id="id12" stroke="none" /><text fill="#e1ed5e" style="font-size:6.75px; font-family:Arial;" text-anchor="middle"><textPath startOffset="22.20632615414155" xlink:href="#id12">December</textPath></text></svg>