<?xml version="1.0" encoding="utf-8" ?>
<svg baseProfile="full" height="200mm" version="1.1" viewBox="0,0,200,200" width="200mm" xmlns="http://www.w3.org/2000/svg" xmlns:ev="http://www.w3.org/2001/xml-events" xmlns:xlink="http://www.w3.org/1999/xlink"><defs /><rect fill="#1a1a1a" height="200" width="200" x="0" y="0" /><rect fill="#1a1a1a" height="200" width="180" x="10" y="0" /><text alignment-baseline="middle" fill="#e1ed5e" style="dominant-baseline: central; font-size:9.0px; font-family:Arial;" text-anchor="middle" x="100.0" y="100.0">2026</text><line stroke="#e1ed5e" stroke-width="0.3" x1="100.0" x2="100.0" y1="15.0" y2="10.0" /><path d="M 100.0 14.0 a86.0,86.0 0 0,1 42.46469731375804,11.215312516191453" fill="none" id="id13" stroke="none" /><text fill="#e1ed5e" style="font-size:6.75px; font-family:Arial;" text-anchor="middle"><textPath startOffset="22.20632615414155" xlink:href="#id13">January</textPath></text><path d="M 100.36148047927253 79.00311137660856 l 1.084441437817585 -62.990665870174325 a84.0,84.0 0 0,0 1.4454934592205289,0.03733283143056143 l -2.1685615322329816 62.9626662466014" fill="red" stroke="none" /><path d="M 101.08401301168833 79.027996857942 l 0.5593260662923901 -10.821076770517179 a31.835522512636878,31.835522512636878 0 0,0 0.5470221294085857,0.03299786869856342 l -0.7455102445405878 10.80984563243831" fill="red" stroke="none" /><path d="M 101.44485096284872 79.0497635885617 l 0.8021058802649308 -11.6304783335045 a32.658104481830364,32.658104481830364 0 0,0 0.560490535813398,0.04350485287147315 l -1.0021866054406698 11.614948218444564" fill="red" stroke="none" /><path d="M 103.95276090670814 79.375362276772 l 3.9534190715607114 -20.628071882785612 a42.00349666024089,42.00349666024089 0 0,0 0.7089261969630851,0.14220392587939618 l -4.307911677990922 20.55696400082901" fill="red" stroke="none" /><path d="M 104.307194497241 79.44645832069477 l 4.790351546314531 -22.859123317688155 a44.35566284202939,44.35566284202939 0 0,0 0.7459297646502718,0.1630313549721536 l -5.183124035118331 22.77327846462013" fill="red" stroke="none" /><path d="M 106.0581310904928 79.89281104454417 l 14.357904540372505 -47.6544820977427 a70.77046400019321,70.77046400019321 0 0,0 1.1633809215674398,0.36146811537915036 l -15.176070834650663 47.40027384748103" fill="red" stroke="none" /><path d="M 106.74666289553966 80.11325718540242 l 7.286780138742069 -21.47881475766103 a43.68119591609497,43.68119591609497 0 0,0 0.7099608690571929,0.24769140676696402 l -7.655423011862536 21.35020249772186" fill="red" stroke="none" /><path d="M 107.08798089147638 80.2323363322302 l 7.8937344563981755 -22.01482907557084 a44.38725599326965,44.38725599326965 0 0,0 0.7169972258749617,0.26407612927824947 l -8.271514008045713 21.875689678486268" fill="red" stroke="none" /><path d="M 109.41281617654863 81.2277094730956 l 5.3862329695215125 -10.74194250190099 a33.016689823579014,33.016689823579014 0 0,0 0.5058463659653146,0.25911415582688185 l -5.5703398230755825 10.647635820761607" fill="red" stroke="none" /><path d="M 109.73455568895987 81.39251694778311 l 5.48493374678016 -10.484383160034037 a32.83244642721754,32.83244642721754 0 0,0 0.49851372275772216,0.2662887660736488 l -5.664592516066194 10.388415667458633" fill="red" stroke="none" /><line stroke="#e1ed5e" stroke-width="0.3" x1="143.23703022742887" x2="145.7803849466894" y1="26.81831364943548" y2="22.513508569990506" /><path d="M 143.74570117128098 25.957352633546492 a86.0,86.0 0 0,1 28.547481713284135,27.462654790039103" fill="none" id="id14" stroke="none" /><text fill="#e1ed5e" style="font-size:6.75px; font-family:Arial;" text-anchor="middle"><textPath startOffset="19.985693538727396" xlink:href="#id14">February</textPath></text><path d="M 111.2981086023043 82.29822771554956 l 16.04344695762401 -25.136724623411485 a50.82024673062442,50.82024673062442 0 0,0 0.7333433579598967,0.47698691928972864 l -16.473757341368184 24.856838779962228" fill="red" stroke="none" /><path d="M 111.90073688211348 82.69761687909136 l 6.75540631097082 -9.821629474515655 a32.92056709896719,32.92056709896719 0 0,0 0.46413118025005573,0.3251535524348899 l -6.923468630804527 9.70389107931683" fill="red" stroke="none" /><path d="M 112.19680574252982 82.90503203632743 l 6.987574283132998 -9.793741167608738 a33.0309417927449,33.0309417927449 0 0,0 0.4600025539301728,0.33421141842134805 l -7.15512215341696 9.672010514370715" fill="red" stroke="none" /><path d="M 112.48926042617603 83.11751280151076 l 5.769084768305667 -7.798420116517713 a30.70039666083839,30.70039666083839 0 0,0 0.4221360769981134,0.3179441413963061 l -5.902466999062163 7.697959385615559" fill="red" stroke="none" /><path d="M 114.16331599549186 84.49514656593476 l 7.898920274078437 -8.647099392256372 a32.71175774150951,32.71175774150951 0 0,0 0.4124674074840288,0.38334350293442215 l -8.046595565357313 8.50985130324731" fill="red" stroke="none" /><path d="M 115.68641384162765 86.03803664274999 l 22.79033791461619 -20.28493357855973 a51.510293878443264,51.510293878443264 0 0,0 0.5838032882174179,0.6673880790351876 l -23.136133066411457 19.889629943321594" fill="red" stroke="none" /><path d="M 116.15771136456269 86.58626213691792 l 9.428733010433596 -7.827504163759887 a33.254420737665185,33.254420737665185 0 0,0 0.3618421563658112,0.4435756990063178 l -9.562073658875816 7.664044295145468" fill="red" stroke="none" /><path d="M 116.38621287248628 86.86637796730983 l 9.341269469752262 -7.487068761765657 a32.97144577525759,32.97144577525759 0 0,0 0.35113949069303546,0.4459114944065769 l -9.468763041039262 7.325164873406042" fill="red" stroke="none" /><line stroke="#e1ed5e" stroke-width="0.3" x1="172.23445277983987" x2="176.4835382374775" y1="55.19839476539836" y2="52.563006222186495" /><path d="M 173.08426987136738 54.67131705675599 a86.0,86.0 0 0,1 12.851231095245387,41.99856678651699" fill="none" id="id15" stroke="none" /><text fill="#e1ed5e" style="font-size:6.75px; font-family:Arial;" text-anchor="middle"><textPath startOffset="22.20632615414155" xlink:href="#id15">March</textPath></text><path d="M 117.84615892207809 88.93136811851018 l 10.231974211602733 -6.346125038089702 a33.04020760892321,33.04020760892321 0 0,0 0.2956063348123794,0.4858990899792422 l -10.339696344701336 6.169058174903378" fill="red" stroke="none" /><path d="M 119.196687751892 91.48605970444005 l 10.719813839356572 -4.754354302543875 a32.72681941468266,32.72681941468266 0 0,0 0.2239594279614676,0.5169292378480959 l -10.80006397716072 4.569125920109176" fill="red" stroke="none" /><path d="M 119.34039704204932 91.81776055985345 l 21.49507361730159 -9.093807057732585 a44.3395697607407,44.3395697607407 0 0,0 0.2913285257037511,0.7054751329630105 l -21.648423829891538 8.722457354316271" fill="red" stroke="none" /><path d="M 120.18372546131832 94.20196356495316 l 11.654487458324656 -3.347902400112673 a33.12582073085888,33.12582073085888 0 0,0 0.15271512774257934,0.5493975678823 l -11.710389356633598 3.146793528811421" fill="red" stroke="none" /><path d="M 120.28053869075195 94.5502522615342 l 11.337173501395199 -3.046503674875119 a32.739364873866265,32.739364873866265 0 0,0 0.14156449632302598,0.5455057521250579 l -11.38793432958853 2.8509014972012108" fill="red" stroke="none" /><path d="M 120.83666639777658 97.38593545837742 l 11.58464508762997 -1.4533519600854716 a32.675454326330666,32.675454326330666 0 0,0 0.06521032172685103,0.5586822132833004 l -11.607945762360409 1.2537260084773185" fill="red" stroke="none" /><path d="M 120.98425023603335 99.18683210126433 l 30.049349489357645 -1.1644526779744337 a51.07190307866797,51.07190307866797 0 0,0 0.026480308831058022,0.8787525338161826 l -30.064941492644348 0.6470299967332521" fill="red" stroke="none" /><line stroke="#e1ed5e" stroke-width="0.3" x1="184.98032266829074" x2="189.97916517819016" y1="98.17113171792111" y2="98.06355123074" /><path d="M 185.9800911702706 98.14961562048488 a86.0,86.0 0 0,1 -9.607161424134198,41.387399972396054" fill="none" id="id16" stroke="none" /><text fill="#e1ed5e" style="font-size:6.75px; font-family:Arial;" text-anchor="middle"><textPath startOffset="21.466115282336823" xlink:href="#id16">April</textPath></text><path d="M 120.02730092923936 106.31721596034902 l 11.725748555305225 3.6986554594816776 a33.295252392293385,33.295252392293385 0 0,0 -0.17711131888519102,0.5450925903803528 l -11.660344985403787 -3.899946949839826" fill="red" stroke="none" /><path d="M 119.79798401119884 107.00284435728193 l 39.59018556940565 14.003643374074455 a62.99386647081017,62.99386647081017 0 0,0 -0.3703911530772074,1.019157376598065 l -39.34327015532321 -14.68304854767865" fill="red" stroke="none" /><path d="M 119.26925614724726 108.34839909993367 l 27.026403027063438 11.709180519550738 a50.45388546560012,50.45388546560012 0 0,0 -0.35211746309195,0.7939319229769032 l -26.820844479240215 -12.17266077902033" fill="red" stroke="none" /><path d="M 118.97047184881838 109.00673069616215 l 10.686034684534594 5.073476157075456 a32.829264457078025,32.829264457078025 0 0,0 -0.2467615467754322,0.508401874713258 l -10.597119881144446 -5.25666698775399" fill="red" stroke="none" /><path d="M 118.81262510543309 109.33194174019688 l 10.613673243067055 5.264878229311212 a32.84774250564523,32.84774250564523 0 0,0 -0.2556200845138407,0.5043626774295091 l -10.521474488766945 -5.446795118443416" fill="red" stroke="none" /><line stroke="#e1ed5e" stroke-width="0.3" x1="174.80103733775053" x2="179.2010983576182" y1="140.37084112569926" y2="142.7455964860345" /><path d="M 175.68104954172406 140.8457921977663 a86.0,86.0 0 0,1 -30.038265399797805,32.042727171017184" fill="none" id="id17" stroke="none" /><text fill="#e1ed5e" style="font-size:6.75px; font-family:Arial;" text-anchor="middle"><textPath startOffset="22.206326154141568" xlink:href="#id17">May</textPath></text><path d="M 117.94076556474637 110.91462005526583 l 43.434704238252486 26.42436256482415 a71.84112970048707,71.84112970048707 0 0,0 -0.6518226444829961,1.050945647754905 l -42.97341695410153 -27.168104543944327" fill="red" stroke="none" /><path d="M 117.55443506779137 111.5257021239791 l 9.933661305060735 6.5221364720928285 a32.88342926449535,32.88342926449535 0 0,0 -0.31473653169570026,0.47048841087168314 l -9.819921667954311 -6.692161797170319" fill="red" stroke="none" /><path d="M 117.35343817320211 111.8261652097733 l 7.273372949683714 4.956718621217398 a29.801761957421597,29.801761957421597 0 0,0 -0.29253848451775466,0.42142350549899116 l -7.186973558003823 -5.081183388903408" fill="red" stroke="none" /><path d="M 115.80600337817218 113.82643327865902 l 9.032635765457933 7.901373468893665 a33.000842119050084,33.000842119050084 0 0,0 -0.3776885884507651,0.4243371329736706 l -8.895288327358829 -8.055684771608203" fill="red" stroke="none" /><line stroke="#e1ed5e" stroke-width="0.3" x1="143.8653032363475" x2="146.44561519142675" y1="172.8068346515853" y2="177.08958963109032" /><path d="M 144.38136562736335 173.6633856474863 a86.0,86.0 0 0,1 -40.68145358897372,12.25698825130547" fill="none" id="id18" stroke="none" /><text fill="#e1ed5e" style="font-size:6.75px; font-family:Arial;" text-anchor="middle"><textPath startOffset="21.466115282336833" xlink:href="#id18">June</textPath></text><line stroke="#e1ed5e" stroke-width="0.3" x1="102.19456741930631" x2="102.32365962044197" y1="184.97166512339345" y2="189.96999836594603" /><path d="M 102.22038585953345 185.97133177190398 a86.0,86.0 0 0,1 -42.740103519485714,-10.115201625700543" fill="none" id="id19" stroke="none" /><text fill="#e1ed5e" style="font-size:6.75px; font-family:Arial;" text-anchor="middle"><textPath startOffset="22.20632615414155" xlink:href="#id19">July</textPath></text><line stroke="#e1ed5e" stroke-width="0.3" x1="58.666819895761336" x2="56.23545636021788" y1="174.27360380694188" y2="178.64263932499728" /><path d="M 58.180547188652646 175.14741091055294 a86.0,86.0 0 0,1 -31.652253787137756,-30.449443065178592" fill="none" id="id20" stroke="none" /><text fill="#e1ed5e" style="font-size:6.75px; font-family:Arial;" text-anchor="middle"><textPath startOffset="22.20632615414155" xlink:href="#id20">August</textPath></text><line stroke="#e1ed5e" stroke-width="0.3" x1="26.63291911575756" x2="22.317208475507996" y1="142.92168965132927" y2="145.44649492493687" /><path d="M 25.769776987707644 143.4266507060508 a86.0,86.0 0 0,1 -11.730757126820373,-40.83630448921669" fill="none" id="id21" stroke="none" /><text fill="#e1ed5e" style="font-size:6.75px; font-family:Arial;" text-anchor="middle"><textPath startOffset="21.46611528233685" xlink:href="#id21">September</textPath></text><line stroke="#e1ed5e" stroke-width="0.3" x1="15.007084014347285" x2="10.007500721073583" y1="101.09737516637583" y2="101.16192664675087" /><path d="M 14.007167355692545 101.11028546245083 a86.0,86.0 0 0,1 10.666146001902534,-42.60595125391555" fill="none" id="id22" stroke="none" /><text fill="#e1ed5e" style="font-size:6.75px; font-family:Arial;" text-anchor="middle"><textPath startOffset="22.20632615414155" xlink:href="#id22">October</textPath></text><line stroke="#e1ed5e" stroke-width="0.3" x1="26.266209847984257" x2="21.92892807433627" y1="57.711370442889674" y2="55.22380399835377" /><path d="M 25.39875349325466 57.213857153982495 a86.0,86.0 0 0,1 29.58750427330802,-30.492523968695096" fill="none" id="id23" stroke="none" /><text fill="#e1ed5e" style="font-size:6.75px; font-family:Arial;" text-anchor="middle"><textPath startOffset="21.46611528233685" xlink:href="#id23">November</textPath></text><line stroke="#e1ed5e" stroke-width="0.3" x1="56.762969772571076" x2="54.21961505331055" y1="26.818313649435495" y2="22.513508569990535" /><path d="M 56.25429882871897 25.957352633546506 a86.0,86.0 0 0,1 42.265352541879196,-11.944610805530505" fill="none" id="id24" stroke="none" /><text fill="#e1ed5e" style="font-size:6.75px; font-family:Arial;" text-anchor="middle"><textPath startOffset="22.20632615414155" xlink:href="#id24">December</textPath></text></svg>