<?xml version="1.0" encoding="utf-8" ?>
<svg baseProfile="full" height="200mm" version="1.1" viewBox="0,0,200,200" width="200mm" xmlns="http://www.w3.org/2000/svg" xmlns:ev="http://www.w3.org/2001/xml-events" xmlns:xlink="http://www.w3.org/1999/xlink"><defs /><rect fill="#1a1a1a" height="200" width="200" x="0" y="0" /><rect fill="#1a1a1a" height="200" width="180" x="10" y="0" /><text alignment-baseline="middle" fill="#e1ed5e" style="dominant-baseline: central; font-size:9.0px; font-family:Arial;" text-anchor="middle" x="100.0" y="100.0">2025</text><line stroke="#e1ed5e" stroke-width="0.3" x1="100.0" x2="100.0" y1="15.0" y2="10.0" /><path d="M 100.0 14.0 a86.0,86.0 0 0,1 42.46469731375804,11.215312516191453" fill="none" id="id1" stroke="none" /><text fill="#e1ed5e" style="font-size:6.75px; font-family:Arial;" text-anchor="middle"><textPath startOffset="22.20632615414155" xlink:href="#id1">January</textPath></text><line stroke="#e1ed5e" stroke-width="0.3" x1="143.23703022742887" x2="145.7803849466894" y1="26.81831364943548" y2="22.513508569990506" /><path d="M 143.74570117128098 25.957352633546492 a86.0,86.0 0 0,1 28.547481713284135,27.462654790039103" fill="none" id="id2" stroke="none" /><text fill="#e1ed5e" style="font-size:6.75px; font-family:Arial;" text-anchor="middle"><textPath startOffset="19.985693538727396" xlink:href="#id2">February</textPath></text><line stroke="#e1ed5e" stroke-width="0.3" x1="172.23445277983987" x2="176.4835382374775" y1="55.19839476539836" y2="52.563006222186495" /><path d="M 173.08426987136738 54.67131705675599 a86.0,86.0 0 0,1 12.851231095245387,41.99856678651699" fill="none" id="id3" stroke="none" /><text fill="#e1ed5e" style="font-size:6.75px; font-family:Arial;" text-anchor="middle"><textPath startOffset="22.20632615414155" xlink:href="#id3">March</textPath></text><path d="M 120.83666639777658 97.38593545837742 l 15.286008867706036 -1.9177066523588675 a36.40583220433382,36.40583220433382 0 0,0 0.07265502744258119,0.6224639054505137 l -15.316754248152206 1.654299008583501" fill="red" stroke="none" /><path d="M 120.94382443527127 98.46500227214037 l 6.938130328615943 -0.5085037989567899 a27.956739794646186,27.956739794646186 0 0,0 0.03104450711688034,0.48024478447405106 l -6.945855426737238 0.3889999502297036" fill="red" stroke="none" /><line stroke="#e1ed5e" stroke-width="0.3" x1="184.98032266829074" x2="189.97916517819016" y1="98.17113171792111" y2="98.06355123074" /><path d="M 185.9800911702706 98.14961562048488 a86.0,86.0 0 0,1 -9.607161424134198,41.387399972396054" fill="none" id="id4" stroke="none" /><text fill="#e1ed5e" style="font-size:6.75px; font-family:Arial;" text-anchor="middle"><textPath startOffset="21.466115282336823" xlink:href="#id4">April</textPath></text><path d="M 120.99980553446 99.90962569577887 l 27.924398360128194 -0.12017483059302748 a48.92465694981835,48.92465694981835 0 0,0 -0.003624391496522269,0.8421809414045504 l -27.92232967134217 -0.3605155890152076" fill="red" stroke="none" /><path d="M 120.8583938346157 102.4346265915055 l 27.7564690214765 3.2397814568942636 a48.944905733042305,48.944905733042305 0 0,0 -0.10487842324010449,0.835984224024732 l -27.69658908898955 -3.7170834352063906" fill="red" stroke="none" /><path d="M 119.9155931802556 106.66101706037122 l 26.389082098524703 8.826155689908198 a48.82597129059785,48.82597129059785 0 0,0 -0.27344675770842297,0.7947642754906898 l -26.23324450987305 -9.279092668488188" fill="red" stroke="none" /><path d="M 118.81262510543309 109.33194174019688 l 24.910077744612384 12.356563369211207 a48.806413496529274,48.806413496529274 0 0,0 -0.3798099531697241,0.7494010701834591 l -24.69368912165639 -12.78351865109736" fill="red" stroke="none" /><line stroke="#e1ed5e" stroke-width="0.3" x1="174.80103733775053" x2="179.2010983576182" y1="140.37084112569926" y2="142.7455964860345" /><path d="M 175.68104954172406 140.8457921977663 a86.0,86.0 0 0,1 -30.038265399797805,32.042727171017184" fill="none" id="id5" stroke="none" /><text fill="#e1ed5e" style="font-size:6.75px; font-family:Arial;" text-anchor="middle"><textPath startOffset="22.206326154141568" xlink:href="#id5">May</textPath></text><path d="M 117.35343817320211 111.8261652097733 l 13.884785845018111 9.462319205370848 a37.80246299523809,37.80246299523809 0 0,0 -0.3710745442321569,0.5345605570137049 l -13.719850393623819 -9.699921024571573" fill="red" stroke="none" /><path d="M 116.498646956653 112.99209946851258 l 22.05368678412428 17.36649636176526 a49.070630499785075,49.070630499785075 0 0,0 -0.528285266675056,0.6591170977502648 l -21.751483605394373 -17.743541293093777" fill="red" stroke="none" /><path d="M 114.55890576462653 115.13401014063108 l 19.499993385309587 20.27028008880615 a49.12710431071369,49.12710431071369 0 0,0 -0.6144728505985414,0.5810224337024482 l -19.148184700320236 -20.60293715925452" fill="red" stroke="none" /><path d="M 111.45004920935366 117.60387380957326 l 14.185188945831431 21.809013358944846 a47.01639193123391,47.01639193123391 0 0,0 -0.6822262011209922,0.4354290399709429 l -13.80768094266351 -22.049956827739596" fill="red" stroke="none" /><line stroke="#e1ed5e" stroke-width="0.3" x1="143.8653032363475" x2="146.44561519142675" y1="172.8068346515853" y2="177.08958963109032" /><path d="M 144.38136562736335 173.6633856474863 a86.0,86.0 0 0,1 -40.68145358897372,12.25698825130547" fill="none" id="id6" stroke="none" /><text fill="#e1ed5e" style="font-size:6.75px; font-family:Arial;" text-anchor="middle"><textPath startOffset="21.466115282336833" xlink:href="#id6">June</textPath></text><path d="M 109.2508944713604 118.85261126421891 l 11.675323368558878 23.793410846153876 a47.50357665399691,47.50357665399691 0 0,0 -0.7371816122008326,0.35389197230919783 l -11.264029088357812 -23.990857094962635" fill="red" stroke="none" /><path d="M 105.88484417918355 120.15858648285463 l 6.041818730177008 20.696304214277706 a42.56016191261668,42.56016191261668 0 0,0 -0.7050168480867054,0.19924480349225474 l -5.684670713985697 -20.797237811108477" fill="red" stroke="none" /><line stroke="#e1ed5e" stroke-width="0.3" x1="102.19456741930631" x2="102.32365962044197" y1="184.97166512339345" y2="189.96999836594603" /><path d="M 102.22038585953345 185.97133177190398 a86.0,86.0 0 0,1 -42.740103519485714,-10.115201625700543" fill="none" id="id7" stroke="none" /><text fill="#e1ed5e" style="font-size:6.75px; font-family:Arial;" text-anchor="middle"><textPath startOffset="22.20632615414155" xlink:href="#id7">July</textPath></text><path d="M 100.54218724476979 120.99299961872073 l 0.4307867088099495 16.679671646714926 a37.68523369421936,37.68523369421936 0 0,0 -0.6486172644240917,0.011166534423926568 l -0.14360975449318988 -16.684615658418014" fill="red" stroke="none" /><line stroke="#e1ed5e" stroke-width="0.3" x1="58.666819895761336" x2="56.23545636021788" y1="174.27360380694188" y2="178.64263932499728" /><path d="M 58.180547188652646 175.14741091055294 a86.0,86.0 0 0,1 -31.652253787137756,-30.449443065178592" fill="none" id="id8" stroke="none" /><text fill="#e1ed5e" style="font-size:6.75px; font-family:Arial;" text-anchor="middle"><textPath startOffset="22.20632615414155" xlink:href="#id8">August</textPath></text><path d="M 84.9287848128048 114.62390073753433 l -7.770165669925752 7.539546749205302 a31.826829624665983,31.826829624665983 0 0,0 -0.3781231181777274,-0.3964605776930419 l 7.898795339482437 -7.40467905492976" fill="red" stroke="none" /><path d="M 83.95833913139862 113.55231037782056 l -17.279671860767834 14.598206395347834 a43.62066952097099,43.62066952097099 0 0,0 -0.47962795617687143,-0.5777427706866165 l 17.52839581683824 -14.298602367547456" fill="red" stroke="none" /><path d="M 82.05923443525364 110.91462005526583 l -15.907491928751906 9.67763776902067 a39.62001536658019,39.62001536658019 0 0,0 -0.34944688338193236,-0.5856930766952979 l 16.071719687832072 -9.402382598439262" fill="red" stroke="none" /><line stroke="#e1ed5e" stroke-width="0.3" x1="26.63291911575756" x2="22.317208475507996" y1="142.92168965132927" y2="145.44649492493687" /><path d="M 25.769776987707644 143.4266507060508 a86.0,86.0 0 0,1 -11.730757126820373,-40.83630448921669" fill="none" id="id9" stroke="none" /><text fill="#e1ed5e" style="font-size:6.75px; font-family:Arial;" text-anchor="middle"><textPath startOffset="21.46611528233685" xlink:href="#id9">September</textPath></text><path d="M 79.10278846688536 102.07522291339032 l -15.708181198918565 1.5599199682707212 a36.78544604645268,36.78544604645268 0 0,0 -0.057149525161589596,-0.6306402479650252 l 15.73270532035723 -1.2892983317571298" fill="red" stroke="none" /><line stroke="#e1ed5e" stroke-width="0.3" x1="15.007084014347285" x2="10.007500721073583" y1="101.09737516637583" y2="101.16192664675087" /><path d="M 14.007167355692545 101.11028546245083 a86.0,86.0 0 0,1 10.666146001902534,-42.60595125391555" fill="none" id="id10" stroke="none" /><text fill="#e1ed5e" style="font-size:6.75px; font-family:Arial;" text-anchor="middle"><textPath startOffset="22.20632615414155" xlink:href="#id10">October</textPath></text><path d="M 79.05617556472873 98.46500227214037 l -23.135181704014265 -1.6956049005775429 a44.19723493127185,44.19723493127185 0 0,0 0.06214029405222647,-0.7582689830302609 l 23.10256692614254 2.093587800815582" fill="red" stroke="none" /><path d="M 79.62865764111835 94.90015583598534 l -14.764881543747116 -3.6963001085894147 a36.22052435015438,36.22052435015438 0 0,0 0.1566169748845176,-0.6035090923149253 l 14.699068236992291 3.9499056264532038" fill="red" stroke="none" /><path d="M 79.71946130924805 94.55025226153421 l -14.412895059578553 -3.873005715153941 a35.92419904946456,35.92419904946456 0 0,0 0.16561608213312082,-0.5958091648884035 l 14.34409220687907 4.120526183461287" fill="red" stroke="none" /><path d="M 80.52162464483688 92.15188598940014 l -13.220230965496604 -5.326618774505643 a35.252977736248354,35.252977736248354 0 0,0 0.2316260190612336,-0.5609007775678017 l 13.12658325954917 5.553394122526756" fill="red" stroke="none" /><line stroke="#e1ed5e" stroke-width="0.3" x1="26.266209847984257" x2="21.92892807433627" y1="57.711370442889674" y2="55.22380399835377" /><path d="M 25.39875349325466 57.213857153982495 a86.0,86.0 0 0,1 29.58750427330802,-30.492523968695096" fill="none" id="id11" stroke="none" /><text fill="#e1ed5e" style="font-size:6.75px; font-family:Arial;" text-anchor="middle"><textPath startOffset="21.46611528233685" xlink:href="#id11">November</textPath></text><path d="M 81.78341655067847 89.55222093294921 l -12.777684208185942 -7.328400628310053 a35.7300600641389,35.7300600641389 0 0,0 0.3105798473953693,-0.5308816351353981 l 12.649644686320247 7.547261675799343" fill="red" stroke="none" /><path d="M 81.96595687620814 89.24020034530311 l -12.929090608472956 -7.713989797499264 a36.0554648735277,36.0554648735277 0 0,0 0.3225834397705721,-0.5302423573783651 l 12.794391370416164 7.935399928084703" fill="red" stroke="none" /><path d="M 83.39014120810768 87.1503855733568 l -11.786822182421407 -9.118447197964723 a35.90218965327217,35.90218965327217 0 0,0 0.3823513435093178,-0.48554737786997565 l 11.628116758318118 9.319986969787745" fill="red" stroke="none" /><path d="M 87.80319425747017 82.90503203632743 l -3.333590060293414 -4.672339339309096 a26.739649605310625,26.739649605310625 0 0,0 0.37698940888460036,-0.26410517272964684 l 3.2526695118251556 4.7290293548026865" fill="red" stroke="none" /><path d="M 88.09926311788651 82.69761687909137 l -8.480828315850486 -12.330206285296482 a35.96524092558808,35.96524092558808 0 0,0 0.5130960640878092,-0.34644475288357085 l 8.267327557356136 12.474362950478719" fill="red" stroke="none" /><line stroke="#e1ed5e" stroke-width="0.3" x1="56.762969772571076" x2="54.21961505331055" y1="26.818313649435495" y2="22.513508569990535" /><path d="M 56.25429882871897 25.957352633546506 a86.0,86.0 0 0,1 42.265352541879196,-11.944610805530505" fill="none" id="id12" stroke="none" /><text fill="#e1ed5e" style="font-size:6.75px; font-family:Arial;" text-anchor="middle"><textPath startOffset="22.20632615414155" xlink:href="#id12">December</textPath></text><path d="M 89.94658935756843 81.56283822128135 l -7.253133938663377 -13.301675280768944 a36.15066061949808,36.15066061949808 0 0,0 0.5488960576095755,-0.2932012645007564 l 7.023092834525496 13.424555271771451" fill="red" stroke="none" /><path d="M 90.26544431104013 81.39251694778311 l -6.916582855989783 -13.220962762383174 a35.92089054876063,35.92089054876063 0 0,0 0.5503414195493158,-0.28190625046986373 l 6.6879809488517035 13.338061538165544" fill="red" stroke="none" /><path d="M 92.57280143429618 80.3572730644239 l -3.4917720413649715 -9.234696517543798 a30.87279553925805,30.87279553925805 0 0,0 0.49869513808219734,-0.18367362801706896 l 3.332294577510206 9.29343341336719" fill="red" stroke="none" /><path d="M 92.91201910852362 80.23233633223022 l -4.927434098609809 -13.742116619353705 a35.59881419760043,35.59881419760043 0 0,0 0.5785959961737355,-0.2018607820348191 l 4.690156098372788 13.824898254560736" fill="red" stroke="none" /><path d="M 95.33964822691252 79.52364482259891 l -13.98105531926245 -61.42906553220327 a84.0,84.0 0 0,0 1.4126291033859162,-0.30874600761652715 l 12.921583491723013 61.66062503791566" fill="red" stroke="none" /><path d="M 95.692805502759 79.44645832069477 l -3.0908531679987385 -14.749271121554374 a36.06965069015356,36.06965069015356 0 0,0 0.6087759906370146,-0.12211473665461078 l 2.8365107678945876 14.800289814286195" fill="red" stroke="none" /><path d="M 98.55514903715128 79.0497635885617 l -1.0141827022859944 -14.705577200426909 a35.740507703309675,35.740507703309675 0 0,0 0.6141205510997112,-0.03704542873281072 l 0.7609001023466602 14.720855898540027" fill="red" stroke="none" /></svg>